0
SECTION
2
HEADER
9
$ACADVER
1
AC1015
9
$DWGCODEPAGE
3
ANSI_1252
9
$INSUNITS
70
4
0
ENDSEC
0
SECTION
2
TABLES
0
TABLE
2
LTYPE
70
2
0
LTYPE
2
CONTINUOUS
70
0
3
Solid line
72
65
73
0
40
0.0
0
LTYPE
2
DASHED
70
0
3
__ __ __
72
65
73
2
40
0.75
49
0.5
74
0
49
-0.25
74
0
0
ENDTAB
0
TABLE
2
LAYER
70
5
0
LAYER
2
0
70
0
62
7
6
CONTINUOUS
0
LAYER
2
CUT
70
0
62
1
6
CONTINUOUS
0
LAYER
2
CREASE
70
0
62
3
6
DASHED
0
LAYER
2
PRINT
70
0
62
5
6
CONTINUOUS
0
LAYER
2
FRAME
70
0
62
8
6
CONTINUOUS
0
ENDTAB
0
ENDSEC
0
SECTION
2
ENTITIES
0
LINE
5
100
8
0
100
AcDbEntity
100
AcDbLine
10
0.0
20
0.0
30
0.0
11
0.0
21
1.0
31
0.0
0
LINE
5
101
8
0
100
AcDbEntity
100
AcDbLine
10
1.0
20
0.0
30
0.0
11
1.0
21
1.0
31
0.0
0
LINE
5
102
8
0
100
AcDbEntity
100
AcDbLine
10
2.0
20
0.0
30
0.0
11
2.0
21
1.0
31
0.0
0
LINE
5
103
8
0
100
AcDbEntity
100
AcDbLine
10
3.0
20
0.0
30
0.0
11
3.0
21
1.0
31
0.0
0
LINE
5
104
8
0
100
AcDbEntity
100
AcDbLine
10
4.0
20
0.0
30
0.0
11
4.0
21
1.0
31
0.0
0
LINE
5
105
8
0
100
AcDbEntity
100
AcDbLine
10
5.0
20
0.0
30
0.0
11
5.0
21
1.0
31
0.0
0
LINE
5
106
8
0
100
AcDbEntity
100
AcDbLine
10
6.0
20
0.0
30
0.0
11
6.0
21
1.0
31
0.0
0
LINE
5
107
8
0
100
AcDbEntity
100
AcDbLine
10
7.0
20
0.0
30
0.0
11
7.0
21
1.0
31
0.0
0
LINE
5
108
8
0
100
AcDbEntity
100
AcDbLine
10
8.0
20
0.0
30
0.0
11
8.0
21
1.0
31
0.0
0
LINE
5
109
8
0
100
AcDbEntity
100
AcDbLine
10
9.0
20
0.0
30
0.0
11
9.0
21
1.0
31
0.0
0
LINE
5
10A
8
0
100
AcDbEntity
100
AcDbLine
10
10.0
20
0.0
30
0.0
11
10.0
21
1.0
31
0.0
0
LINE
5
10B
8
0
100
AcDbEntity
100
AcDbLine
10
11.0
20
0.0
30
0.0
11
11.0
21
1.0
31
0.0
0
LINE
5
10C
8
0
100
AcDbEntity
100
AcDbLine
10
12.0
20
0.0
30
0.0
11
12.0
21
1.0
31
0.0
0
LINE
5
10D
8
0
100
AcDbEntity
100
AcDbLine
10
13.0
20
0.0
30
0.0
11
13.0
21
1.0
31
0.0
0
LINE
5
10E
8
0
100
AcDbEntity
100
AcDbLine
10
14.0
20
0.0
30
0.0
11
14.0
21
1.0
31
0.0
0
LINE
5
10F
8
0
100
AcDbEntity
100
AcDbLine
10
15.0
20
0.0
30
0.0
11
15.0
21
1.0
31
0.0
0
LINE
5
110
8
0
100
AcDbEntity
100
AcDbLine
10
16.0
20
0.0
30
0.0
11
16.0
21
1.0
31
0.0
0
LINE
5
111
8
0
100
AcDbEntity
100
AcDbLine
10
17.0
20
0.0
30
0.0
11
17.0
21
1.0
31
0.0
0
LINE
5
112
8
0
100
AcDbEntity
100
AcDbLine
10
18.0
20
0.0
30
0.0
11
18.0
21
1.0
31
0.0
0
LINE
5
113
8
0
100
AcDbEntity
100
AcDbLine
10
19.0
20
0.0
30
0.0
11
19.0
21
1.0
31
0.0
0
LINE
5
114
8
0
100
AcDbEntity
100
AcDbLine
10
20.0
20
0.0
30
0.0
11
20.0
21
1.0
31
0.0
0
LINE
5
115
8
0
100
AcDbEntity
100
AcDbLine
10
21.0
20
0.0
30
0.0
11
21.0
21
1.0
31
0.0
0
LINE
5
116
8
0
100
AcDbEntity
100
AcDbLine
10
22.0
20
0.0
30
0.0
11
22.0
21
1.0
31
0.0
0
LINE
5
117
8
0
100
AcDbEntity
100
AcDbLine
10
23.0
20
0.0
30
0.0
11
23.0
21
1.0
31
0.0
0
LINE
5
118
8
0
100
AcDbEntity
100
AcDbLine
10
24.0
20
0.0
30
0.0
11
24.0
21
1.0
31
0.0
0
LINE
5
119
8
0
100
AcDbEntity
100
AcDbLine
10
25.0
20
0.0
30
0.0
11
25.0
21
1.0
31
0.0
0
LINE
5
11A
8
0
100
AcDbEntity
100
AcDbLine
10
26.0
20
0.0
30
0.0
11
26.0
21
1.0
31
0.0
0
LINE
5
11B
8
0
100
AcDbEntity
100
AcDbLine
10
27.0
20
0.0
30
0.0
11
27.0
21
1.0
31
0.0
0
LINE
5
11C
8
0
100
AcDbEntity
100
AcDbLine
10
28.0
20
0.0
30
0.0
11
28.0
21
1.0
31
0.0
0
LINE
5
11D
8
0
100
AcDbEntity
100
AcDbLine
10
29.0
20
0.0
30
0.0
11
29.0
21
1.0
31
0.0
0
LINE
5
11E
8
0
100
AcDbEntity
100
AcDbLine
10
30.0
20
0.0
30
0.0
11
30.0
21
1.0
31
0.0
0
LINE
5
11F
8
0
100
AcDbEntity
100
AcDbLine
10
31.0
20
0.0
30
0.0
11
31.0
21
1.0
31
0.0
0
LINE
5
120
8
0
100
AcDbEntity
100
AcDbLine
10
32.0
20
0.0
30
0.0
11
32.0
21
1.0
31
0.0
0
LINE
5
121
8
0
100
AcDbEntity
100
AcDbLine
10
33.0
20
0.0
30
0.0
11
33.0
21
1.0
31
0.0
0
LINE
5
122
8
0
100
AcDbEntity
100
AcDbLine
10
34.0
20
0.0
30
0.0
11
34.0
21
1.0
31
0.0
0
LINE
5
123
8
0
100
AcDbEntity
100
AcDbLine
10
35.0
20
0.0
30
0.0
11
35.0
21
1.0
31
0.0
0
LINE
5
124
8
0
100
AcDbEntity
100
AcDbLine
10
36.0
20
0.0
30
0.0
11
36.0
21
1.0
31
0.0
0
LINE
5
125
8
0
100
AcDbEntity
100
AcDbLine
10
37.0
20
0.0
30
0.0
11
37.0
21
1.0
31
0.0
0
LINE
5
126
8
0
100
AcDbEntity
100
AcDbLine
10
38.0
20
0.0
30
0.0
11
38.0
21
1.0
31
0.0
0
LINE
5
127
8
0
100
AcDbEntity
100
AcDbLine
10
39.0
20
0.0
30
0.0
11
39.0
21
1.0
31
0.0
0
LINE
5
128
8
0
100
AcDbEntity
100
AcDbLine
10
40.0
20
0.0
30
0.0
11
40.0
21
1.0
31
0.0
0
LINE
5
129
8
0
100
AcDbEntity
100
AcDbLine
10
41.0
20
0.0
30
0.0
11
41.0
21
1.0
31
0.0
0
LINE
5
12A
8
0
100
AcDbEntity
100
AcDbLine
10
42.0
20
0.0
30
0.0
11
42.0
21
1.0
31
0.0
0
LINE
5
12B
8
0
100
AcDbEntity
100
AcDbLine
10
43.0
20
0.0
30
0.0
11
43.0
21
1.0
31
0.0
0
LINE
5
12C
8
0
100
AcDbEntity
100
AcDbLine
10
44.0
20
0.0
30
0.0
11
44.0
21
1.0
31
0.0
0
LINE
5
12D
8
0
100
AcDbEntity
100
AcDbLine
10
45.0
20
0.0
30
0.0
11
45.0
21
1.0
31
0.0
0
LINE
5
12E
8
0
100
AcDbEntity
100
AcDbLine
10
46.0
20
0.0
30
0.0
11
46.0
21
1.0
31
0.0
0
LINE
5
12F
8
0
100
AcDbEntity
100
AcDbLine
10
47.0
20
0.0
30
0.0
11
47.0
21
1.0
31
0.0
0
LINE
5
130
8
0
100
AcDbEntity
100
AcDbLine
10
48.0
20
0.0
30
0.0
11
48.0
21
1.0
31
0.0
0
LINE
5
131
8
0
100
AcDbEntity
100
AcDbLine
10
49.0
20
0.0
30
0.0
11
49.0
21
1.0
31
0.0
0
LINE
5
132
8
0
100
AcDbEntity
100
AcDbLine
10
50.0
20
0.0
30
0.0
11
50.0
21
1.0
31
0.0
0
LINE
5
133
8
0
100
AcDbEntity
100
AcDbLine
10
51.0
20
0.0
30
0.0
11
51.0
21
1.0
31
0.0
0
LINE
5
134
8
0
100
AcDbEntity
100
AcDbLine
10
52.0
20
0.0
30
0.0
11
52.0
21
1.0
31
0.0
0
LINE
5
135
8
0
100
AcDbEntity
100
AcDbLine
10
53.0
20
0.0
30
0.0
11
53.0
21
1.0
31
0.0
0
LINE
5
136
8
0
100
AcDbEntity
100
AcDbLine
10
54.0
20
0.0
30
0.0
11
54.0
21
1.0
31
0.0
0
LINE
5
137
8
0
100
AcDbEntity
100
AcDbLine
10
55.0
20
0.0
30
0.0
11
55.0
21
1.0
31
0.0
0
LINE
5
138
8
0
100
AcDbEntity
100
AcDbLine
10
56.0
20
0.0
30
0.0
11
56.0
21
1.0
31
0.0
0
LINE
5
139
8
0
100
AcDbEntity
100
AcDbLine
10
57.0
20
0.0
30
0.0
11
57.0
21
1.0
31
0.0
0
LINE
5
13A
8
0
100
AcDbEntity
100
AcDbLine
10
58.0
20
0.0
30
0.0
11
58.0
21
1.0
31
0.0
0
LINE
5
13B
8
0
100
AcDbEntity
100
AcDbLine
10
59.0
20
0.0
30
0.0
11
59.0
21
1.0
31
0.0
0
LINE
5
13C
8
0
100
AcDbEntity
100
AcDbLine
10
60.0
20
0.0
30
0.0
11
60.0
21
1.0
31
0.0
0
LINE
5
13D
8
0
100
AcDbEntity
100
AcDbLine
10
61.0
20
0.0
30
0.0
11
61.0
21
1.0
31
0.0
0
LINE
5
13E
8
0
100
AcDbEntity
100
AcDbLine
10
62.0
20
0.0
30
0.0
11
62.0
21
1.0
31
0.0
0
LINE
5
13F
8
0
100
AcDbEntity
100
AcDbLine
10
63.0
20
0.0
30
0.0
11
63.0
21
1.0
31
0.0
0
LINE
5
140
8
0
100
AcDbEntity
100
AcDbLine
10
64.0
20
0.0
30
0.0
11
64.0
21
1.0
31
0.0
0
LINE
5
141
8
0
100
AcDbEntity
100
AcDbLine
10
65.0
20
0.0
30
0.0
11
65.0
21
1.0
31
0.0
0
LINE
5
142
8
0
100
AcDbEntity
100
AcDbLine
10
66.0
20
0.0
30
0.0
11
66.0
21
1.0
31
0.0
0
LINE
5
143
8
0
100
AcDbEntity
100
AcDbLine
10
67.0
20
0.0
30
0.0
11
67.0
21
1.0
31
0.0
0
LINE
5
144
8
0
100
AcDbEntity
100
AcDbLine
10
68.0
20
0.0
30
0.0
11
68.0
21
1.0
31
0.0
0
LINE
5
145
8
0
100
AcDbEntity
100
AcDbLine
10
69.0
20
0.0
30
0.0
11
69.0
21
1.0
31
0.0
0
LINE
5
146
8
0
100
AcDbEntity
100
AcDbLine
10
70.0
20
0.0
30
0.0
11
70.0
21
1.0
31
0.0
0
LINE
5
147
8
0
100
AcDbEntity
100
AcDbLine
10
71.0
20
0.0
30
0.0
11
71.0
21
1.0
31
0.0
0
LINE
5
148
8
0
100
AcDbEntity
100
AcDbLine
10
72.0
20
0.0
30
0.0
11
72.0
21
1.0
31
0.0
0
LINE
5
149
8
0
100
AcDbEntity
100
AcDbLine
10
73.0
20
0.0
30
0.0
11
73.0
21
1.0
31
0.0
0
LINE
5
14A
8
0
100
AcDbEntity
100
AcDbLine
10
74.0
20
0.0
30
0.0
11
74.0
21
1.0
31
0.0
0
LINE
5
14B
8
0
100
AcDbEntity
100
AcDbLine
10
75.0
20
0.0
30
0.0
11
75.0
21
1.0
31
0.0
0
LINE
5
14C
8
0
100
AcDbEntity
100
AcDbLine
10
76.0
20
0.0
30
0.0
11
76.0
21
1.0
31
0.0
0
LINE
5
14D
8
0
100
AcDbEntity
100
AcDbLine
10
77.0
20
0.0
30
0.0
11
77.0
21
1.0
31
0.0
0
LINE
5
14E
8
0
100
AcDbEntity
100
AcDbLine
10
78.0
20
0.0
30
0.0
11
78.0
21
1.0
31
0.0
0
LINE
5
14F
8
0
100
AcDbEntity
100
AcDbLine
10
79.0
20
0.0
30
0.0
11
79.0
21
1.0
31
0.0
0
LINE
5
150
8
0
100
AcDbEntity
100
AcDbLine
10
80.0
20
0.0
30
0.0
11
80.0
21
1.0
31
0.0
0
LINE
5
151
8
0
100
AcDbEntity
100
AcDbLine
10
81.0
20
0.0
30
0.0
11
81.0
21
1.0
31
0.0
0
LINE
5
152
8
0
100
AcDbEntity
100
AcDbLine
10
82.0
20
0.0
30
0.0
11
82.0
21
1.0
31
0.0
0
LINE
5
153
8
0
100
AcDbEntity
100
AcDbLine
10
83.0
20
0.0
30
0.0
11
83.0
21
1.0
31
0.0
0
LINE
5
154
8
0
100
AcDbEntity
100
AcDbLine
10
84.0
20
0.0
30
0.0
11
84.0
21
1.0
31
0.0
0
LINE
5
155
8
0
100
AcDbEntity
100
AcDbLine
10
85.0
20
0.0
30
0.0
11
85.0
21
1.0
31
0.0
0
LINE
5
156
8
0
100
AcDbEntity
100
AcDbLine
10
86.0
20
0.0
30
0.0
11
86.0
21
1.0
31
0.0
0
LINE
5
157
8
0
100
AcDbEntity
100
AcDbLine
10
87.0
20
0.0
30
0.0
11
87.0
21
1.0
31
0.0
0
LINE
5
158
8
0
100
AcDbEntity
100
AcDbLine
10
88.0
20
0.0
30
0.0
11
88.0
21
1.0
31
0.0
0
LINE
5
159
8
0
100
AcDbEntity
100
AcDbLine
10
89.0
20
0.0
30
0.0
11
89.0
21
1.0
31
0.0
0
LINE
5
15A
8
0
100
AcDbEntity
100
AcDbLine
10
90.0
20
0.0
30
0.0
11
90.0
21
1.0
31
0.0
0
LINE
5
15B
8
0
100
AcDbEntity
100
AcDbLine
10
91.0
20
0.0
30
0.0
11
91.0
21
1.0
31
0.0
0
LINE
5
15C
8
0
100
AcDbEntity
100
AcDbLine
10
92.0
20
0.0
30
0.0
11
92.0
21
1.0
31
0.0
0
LINE
5
15D
8
0
100
AcDbEntity
100
AcDbLine
10
93.0
20
0.0
30
0.0
11
93.0
21
1.0
31
0.0
0
LINE
5
15E
8
0
100
AcDbEntity
100
AcDbLine
10
94.0
20
0.0
30
0.0
11
94.0
21
1.0
31
0.0
0
LINE
5
15F
8
0
100
AcDbEntity
100
AcDbLine
10
95.0
20
0.0
30
0.0
11
95.0
21
1.0
31
0.0
0
LINE
5
160
8
0
100
AcDbEntity
100
AcDbLine
10
96.0
20
0.0
30
0.0
11
96.0
21
1.0
31
0.0
0
LINE
5
161
8
0
100
AcDbEntity
100
AcDbLine
10
97.0
20
0.0
30
0.0
11
97.0
21
1.0
31
0.0
0
LINE
5
162
8
0
100
AcDbEntity
100
AcDbLine
10
98.0
20
0.0
30
0.0
11
98.0
21
1.0
31
0.0
0
LINE
5
163
8
0
100
AcDbEntity
100
AcDbLine
10
99.0
20
0.0
30
0.0
11
99.0
21
1.0
31
0.0
0
LINE
5
164
8
0
100
AcDbEntity
100
AcDbLine
10
100.0
20
0.0
30
0.0
11
100.0
21
1.0
31
0.0
0
LINE
5
165
8
0
100
AcDbEntity
100
AcDbLine
10
101.0
20
0.0
30
0.0
11
101.0
21
1.0
31
0.0
0
LINE
5
166
8
0
100
AcDbEntity
100
AcDbLine
10
102.0
20
0.0
30
0.0
11
102.0
21
1.0
31
0.0
0
LINE
5
167
8
0
100
AcDbEntity
100
AcDbLine
10
103.0
20
0.0
30
0.0
11
103.0
21
1.0
31
0.0
0
LINE
5
168
8
0
100
AcDbEntity
100
AcDbLine
10
104.0
20
0.0
30
0.0
11
104.0
21
1.0
31
0.0
0
LINE
5
169
8
0
100
AcDbEntity
100
AcDbLine
10
105.0
20
0.0
30
0.0
11
105.0
21
1.0
31
0.0
0
LINE
5
16A
8
0
100
AcDbEntity
100
AcDbLine
10
106.0
20
0.0
30
0.0
11
106.0
21
1.0
31
0.0
0
LINE
5
16B
8
0
100
AcDbEntity
100
AcDbLine
10
107.0
20
0.0
30
0.0
11
107.0
21
1.0
31
0.0
0
LINE
5
16C
8
0
100
AcDbEntity
100
AcDbLine
10
108.0
20
0.0
30
0.0
11
108.0
21
1.0
31
0.0
0
LINE
5
16D
8
0
100
AcDbEntity
100
AcDbLine
10
109.0
20
0.0
30
0.0
11
109.0
21
1.0
31
0.0
0
LINE
5
16E
8
0
100
AcDbEntity
100
AcDbLine
10
110.0
20
0.0
30
0.0
11
110.0
21
1.0
31
0.0
0
LINE
5
16F
8
0
100
AcDbEntity
100
AcDbLine
10
111.0
20
0.0
30
0.0
11
111.0
21
1.0
31
0.0
0
LINE
5
170
8
0
100
AcDbEntity
100
AcDbLine
10
112.0
20
0.0
30
0.0
11
112.0
21
1.0
31
0.0
0
LINE
5
171
8
0
100
AcDbEntity
100
AcDbLine
10
113.0
20
0.0
30
0.0
11
113.0
21
1.0
31
0.0
0
LINE
5
172
8
0
100
AcDbEntity
100
AcDbLine
10
114.0
20
0.0
30
0.0
11
114.0
21
1.0
31
0.0
0
LINE
5
173
8
0
100
AcDbEntity
100
AcDbLine
10
115.0
20
0.0
30
0.0
11
115.0
21
1.0
31
0.0
0
LINE
5
174
8
0
100
AcDbEntity
100
AcDbLine
10
116.0
20
0.0
30
0.0
11
116.0
21
1.0
31
0.0
0
LINE
5
175
8
0
100
AcDbEntity
100
AcDbLine
10
117.0
20
0.0
30
0.0
11
117.0
21
1.0
31
0.0
0
LINE
5
176
8
0
100
AcDbEntity
100
AcDbLine
10
118.0
20
0.0
30
0.0
11
118.0
21
1.0
31
0.0
0
LINE
5
177
8
0
100
AcDbEntity
100
AcDbLine
10
119.0
20
0.0
30
0.0
11
119.0
21
1.0
31
0.0
0
LINE
5
178
8
0
100
AcDbEntity
100
AcDbLine
10
120.0
20
0.0
30
0.0
11
120.0
21
1.0
31
0.0
0
LINE
5
179
8
0
100
AcDbEntity
100
AcDbLine
10
121.0
20
0.0
30
0.0
11
121.0
21
1.0
31
0.0
0
LINE
5
17A
8
0
100
AcDbEntity
100
AcDbLine
10
122.0
20
0.0
30
0.0
11
122.0
21
1.0
31
0.0
0
LINE
5
17B
8
0
100
AcDbEntity
100
AcDbLine
10
123.0
20
0.0
30
0.0
11
123.0
21
1.0
31
0.0
0
LINE
5
17C
8
0
100
AcDbEntity
100
AcDbLine
10
124.0
20
0.0
30
0.0
11
124.0
21
1.0
31
0.0
0
LINE
5
17D
8
0
100
AcDbEntity
100
AcDbLine
10
125.0
20
0.0
30
0.0
11
125.0
21
1.0
31
0.0
0
LINE
5
17E
8
0
100
AcDbEntity
100
AcDbLine
10
126.0
20
0.0
30
0.0
11
126.0
21
1.0
31
0.0
0
LINE
5
17F
8
0
100
AcDbEntity
100
AcDbLine
10
127.0
20
0.0
30
0.0
11
127.0
21
1.0
31
0.0
0
LINE
5
180
8
0
100
AcDbEntity
100
AcDbLine
10
128.0
20
0.0
30
0.0
11
128.0
21
1.0
31
0.0
0
LINE
5
181
8
0
100
AcDbEntity
100
AcDbLine
10
129.0
20
0.0
30
0.0
11
129.0
21
1.0
31
0.0
0
LINE
5
182
8
0
100
AcDbEntity
100
AcDbLine
10
130.0
20
0.0
30
0.0
11
130.0
21
1.0
31
0.0
0
LINE
5
183
8
0
100
AcDbEntity
100
AcDbLine
10
131.0
20
0.0
30
0.0
11
131.0
21
1.0
31
0.0
0
LINE
5
184
8
0
100
AcDbEntity
100
AcDbLine
10
132.0
20
0.0
30
0.0
11
132.0
21
1.0
31
0.0
0
LINE
5
185
8
0
100
AcDbEntity
100
AcDbLine
10
133.0
20
0.0
30
0.0
11
133.0
21
1.0
31
0.0
0
LINE
5
186
8
0
100
AcDbEntity
100
AcDbLine
10
134.0
20
0.0
30
0.0
11
134.0
21
1.0
31
0.0
0
LINE
5
187
8
0
100
AcDbEntity
100
AcDbLine
10
135.0
20
0.0
30
0.0
11
135.0
21
1.0
31
0.0
0
LINE
5
188
8
0
100
AcDbEntity
100
AcDbLine
10
136.0
20
0.0
30
0.0
11
136.0
21
1.0
31
0.0
0
LINE
5
189
8
0
100
AcDbEntity
100
AcDbLine
10
137.0
20
0.0
30
0.0
11
137.0
21
1.0
31
0.0
0
LINE
5
18A
8
0
100
AcDbEntity
100
AcDbLine
10
138.0
20
0.0
30
0.0
11
138.0
21
1.0
31
0.0
0
LINE
5
18B
8
0
100
AcDbEntity
100
AcDbLine
10
139.0
20
0.0
30
0.0
11
139.0
21
1.0
31
0.0
0
LINE
5
18C
8
0
100
AcDbEntity
100
AcDbLine
10
140.0
20
0.0
30
0.0
11
140.0
21
1.0
31
0.0
0
LINE
5
18D
8
0
100
AcDbEntity
100
AcDbLine
10
141.0
20
0.0
30
0.0
11
141.0
21
1.0
31
0.0
0
LINE
5
18E
8
0
100
AcDbEntity
100
AcDbLine
10
142.0
20
0.0
30
0.0
11
142.0
21
1.0
31
0.0
0
LINE
5
18F
8
0
100
AcDbEntity
100
AcDbLine
10
143.0
20
0.0
30
0.0
11
143.0
21
1.0
31
0.0
0
LINE
5
190
8
0
100
AcDbEntity
100
AcDbLine
10
144.0
20
0.0
30
0.0
11
144.0
21
1.0
31
0.0
0
LINE
5
191
8
0
100
AcDbEntity
100
AcDbLine
10
145.0
20
0.0
30
0.0
11
145.0
21
1.0
31
0.0
0
LINE
5
192
8
0
100
AcDbEntity
100
AcDbLine
10
146.0
20
0.0
30
0.0
11
146.0
21
1.0
31
0.0
0
LINE
5
193
8
0
100
AcDbEntity
100
AcDbLine
10
147.0
20
0.0
30
0.0
11
147.0
21
1.0
31
0.0
0
LINE
5
194
8
0
100
AcDbEntity
100
AcDbLine
10
148.0
20
0.0
30
0.0
11
148.0
21
1.0
31
0.0
0
LINE
5
195
8
0
100
AcDbEntity
100
AcDbLine
10
149.0
20
0.0
30
0.0
11
149.0
21
1.0
31
0.0
0
LINE
5
196
8
0
100
AcDbEntity
100
AcDbLine
10
150.0
20
0.0
30
0.0
11
150.0
21
1.0
31
0.0
0
LINE
5
197
8
0
100
AcDbEntity
100
AcDbLine
10
151.0
20
0.0
30
0.0
11
151.0
21
1.0
31
0.0
0
LINE
5
198
8
0
100
AcDbEntity
100
AcDbLine
10
152.0
20
0.0
30
0.0
11
152.0
21
1.0
31
0.0
0
LINE
5
199
8
0
100
AcDbEntity
100
AcDbLine
10
153.0
20
0.0
30
0.0
11
153.0
21
1.0
31
0.0
0
LINE
5
19A
8
0
100
AcDbEntity
100
AcDbLine
10
154.0
20
0.0
30
0.0
11
154.0
21
1.0
31
0.0
0
LINE
5
19B
8
0
100
AcDbEntity
100
AcDbLine
10
155.0
20
0.0
30
0.0
11
155.0
21
1.0
31
0.0
0
LINE
5
19C
8
0
100
AcDbEntity
100
AcDbLine
10
156.0
20
0.0
30
0.0
11
156.0
21
1.0
31
0.0
0
LINE
5
19D
8
0
100
AcDbEntity
100
AcDbLine
10
157.0
20
0.0
30
0.0
11
157.0
21
1.0
31
0.0
0
LINE
5
19E
8
0
100
AcDbEntity
100
AcDbLine
10
158.0
20
0.0
30
0.0
11
158.0
21
1.0
31
0.0
0
LINE
5
19F
8
0
100
AcDbEntity
100
AcDbLine
10
159.0
20
0.0
30
0.0
11
159.0
21
1.0
31
0.0
0
LINE
5
1A0
8
0
100
AcDbEntity
100
AcDbLine
10
160.0
20
0.0
30
0.0
11
160.0
21
1.0
31
0.0
0
LINE
5
1A1
8
0
100
AcDbEntity
100
AcDbLine
10
161.0
20
0.0
30
0.0
11
161.0
21
1.0
31
0.0
0
LINE
5
1A2
8
0
100
AcDbEntity
100
AcDbLine
10
162.0
20
0.0
30
0.0
11
162.0
21
1.0
31
0.0
0
LINE
5
1A3
8
0
100
AcDbEntity
100
AcDbLine
10
163.0
20
0.0
30
0.0
11
163.0
21
1.0
31
0.0
0
LINE
5
1A4
8
0
100
AcDbEntity
100
AcDbLine
10
164.0
20
0.0
30
0.0
11
164.0
21
1.0
31
0.0
0
LINE
5
1A5
8
0
100
AcDbEntity
100
AcDbLine
10
165.0
20
0.0
30
0.0
11
165.0
21
1.0
31
0.0
0
LINE
5
1A6
8
0
100
AcDbEntity
100
AcDbLine
10
166.0
20
0.0
30
0.0
11
166.0
21
1.0
31
0.0
0
LINE
5
1A7
8
0
100
AcDbEntity
100
AcDbLine
10
167.0
20
0.0
30
0.0
11
167.0
21
1.0
31
0.0
0
LINE
5
1A8
8
0
100
AcDbEntity
100
AcDbLine
10
168.0
20
0.0
30
0.0
11
168.0
21
1.0
31
0.0
0
LINE
5
1A9
8
0
100
AcDbEntity
100
AcDbLine
10
169.0
20
0.0
30
0.0
11
169.0
21
1.0
31
0.0
0
LINE
5
1AA
8
0
100
AcDbEntity
100
AcDbLine
10
170.0
20
0.0
30
0.0
11
170.0
21
1.0
31
0.0
0
LINE
5
1AB
8
0
100
AcDbEntity
100
AcDbLine
10
171.0
20
0.0
30
0.0
11
171.0
21
1.0
31
0.0
0
LINE
5
1AC
8
0
100
AcDbEntity
100
AcDbLine
10
172.0
20
0.0
30
0.0
11
172.0
21
1.0
31
0.0
0
LINE
5
1AD
8
0
100
AcDbEntity
100
AcDbLine
10
173.0
20
0.0
30
0.0
11
173.0
21
1.0
31
0.0
0
LINE
5
1AE
8
0
100
AcDbEntity
100
AcDbLine
10
174.0
20
0.0
30
0.0
11
174.0
21
1.0
31
0.0
0
LINE
5
1AF
8
0
100
AcDbEntity
100
AcDbLine
10
175.0
20
0.0
30
0.0
11
175.0
21
1.0
31
0.0
0
LINE
5
1B0
8
0
100
AcDbEntity
100
AcDbLine
10
176.0
20
0.0
30
0.0
11
176.0
21
1.0
31
0.0
0
LINE
5
1B1
8
0
100
AcDbEntity
100
AcDbLine
10
177.0
20
0.0
30
0.0
11
177.0
21
1.0
31
0.0
0
LINE
5
1B2
8
0
100
AcDbEntity
100
AcDbLine
10
178.0
20
0.0
30
0.0
11
178.0
21
1.0
31
0.0
0
LINE
5
1B3
8
0
100
AcDbEntity
100
AcDbLine
10
179.0
20
0.0
30
0.0
11
179.0
21
1.0
31
0.0
0
LINE
5
1B4
8
0
100
AcDbEntity
100
AcDbLine
10
180.0
20
0.0
30
0.0
11
180.0
21
1.0
31
0.0
0
LINE
5
1B5
8
0
100
AcDbEntity
100
AcDbLine
10
181.0
20
0.0
30
0.0
11
181.0
21
1.0
31
0.0
0
LINE
5
1B6
8
0
100
AcDbEntity
100
AcDbLine
10
182.0
20
0.0
30
0.0
11
182.0
21
1.0
31
0.0
0
LINE
5
1B7
8
0
100
AcDbEntity
100
AcDbLine
10
183.0
20
0.0
30
0.0
11
183.0
21
1.0
31
0.0
0
LINE
5
1B8
8
0
100
AcDbEntity
100
AcDbLine
10
184.0
20
0.0
30
0.0
11
184.0
21
1.0
31
0.0
0
LINE
5
1B9
8
0
100
AcDbEntity
100
AcDbLine
10
185.0
20
0.0
30
0.0
11
185.0
21
1.0
31
0.0
0
LINE
5
1BA
8
0
100
AcDbEntity
100
AcDbLine
10
186.0
20
0.0
30
0.0
11
186.0
21
1.0
31
0.0
0
LINE
5
1BB
8
0
100
AcDbEntity
100
AcDbLine
10
187.0
20
0.0
30
0.0
11
187.0
21
1.0
31
0.0
0
LINE
5
1BC
8
0
100
AcDbEntity
100
AcDbLine
10
188.0
20
0.0
30
0.0
11
188.0
21
1.0
31
0.0
0
LINE
5
1BD
8
0
100
AcDbEntity
100
AcDbLine
10
189.0
20
0.0
30
0.0
11
189.0
21
1.0
31
0.0
0
LINE
5
1BE
8
0
100
AcDbEntity
100
AcDbLine
10
190.0
20
0.0
30
0.0
11
190.0
21
1.0
31
0.0
0
LINE
5
1BF
8
0
100
AcDbEntity
100
AcDbLine
10
191.0
20
0.0
30
0.0
11
191.0
21
1.0
31
0.0
0
LINE
5
1C0
8
0
100
AcDbEntity
100
AcDbLine
10
192.0
20
0.0
30
0.0
11
192.0
21
1.0
31
0.0
0
LINE
5
1C1
8
0
100
AcDbEntity
100
AcDbLine
10
193.0
20
0.0
30
0.0
11
193.0
21
1.0
31
0.0
0
LINE
5
1C2
8
0
100
AcDbEntity
100
AcDbLine
10
194.0
20
0.0
30
0.0
11
194.0
21
1.0
31
0.0
0
LINE
5
1C3
8
0
100
AcDbEntity
100
AcDbLine
10
195.0
20
0.0
30
0.0
11
195.0
21
1.0
31
0.0
0
LINE
5
1C4
8
0
100
AcDbEntity
100
AcDbLine
10
196.0
20
0.0
30
0.0
11
196.0
21
1.0
31
0.0
0
LINE
5
1C5
8
0
100
AcDbEntity
100
AcDbLine
10
197.0
20
0.0
30
0.0
11
197.0
21
1.0
31
0.0
0
LINE
5
1C6
8
0
100
AcDbEntity
100
AcDbLine
10
198.0
20
0.0
30
0.0
11
198.0
21
1.0
31
0.0
0
LINE
5
1C7
8
0
100
AcDbEntity
100
AcDbLine
10
199.0
20
0.0
30
0.0
11
199.0
21
1.0
31
0.0
0
ENDSEC
0
EOF
